<?xml version="1.0" encoding="UTF-8"?>
<svg width="900" height="900" version="1.1" viewBox="0 0 238.12 238.13" xmlns="http://www.w3.org/2000/svg">
 <g>
  <g stroke-width=".43942" aria-label="B">
   <path d="m94.174 126.52v47.418h21.027q15.126 0 21.134-5.1494 6.115-5.1494 6.115-17.916 0-12.981-6.3295-18.667-6.3295-5.6858-20.92-5.6858zm0-62.437v37.226h21.027q12.015 0 17.057-4.2912 5.1494-4.2912 5.1494-14.161 0-9.8697-5.2567-14.268-5.1494-4.5058-16.95-4.5058zm-30.575-25.211h51.602q26.713 0 40.123 10.192 13.517 10.084 13.517 30.253 0 15.448-7.9387 24.138-7.9387 8.6897-23.28 10.084 18.345 1.8238 27.571 12.337 9.3333 10.513 9.3333 29.395 0 23.172-13.946 33.579-13.946 10.406-45.379 10.406h-51.602z"/>
  </g>
 </g>
</svg>
