<?xml version="1.0" encoding="UTF-8"?>
<svg width="900" height="900" version="1.1" viewBox="0 0 238.12 238.13" xmlns="http://www.w3.org/2000/svg">
 <g>
  <g stroke-width=".43942" aria-label="S">
   <path d="m107.32 128.77q-23.923-9.1188-32.398-19.096-8.4751-10.084-8.4751-27.035 0-21.778 13.946-34.222t38.299-12.444q11.05 0 22.1 2.5747 11.05 2.4674 21.885 7.4023v30.897q-10.192-7.1877-20.705-10.943-10.513-3.7548-20.812-3.7548-11.479 0-17.594 4.613-6.1149 4.613-6.1149 13.195 0 6.6513 4.3985 11.05 4.5058 4.2912 18.667 9.5479l13.625 5.1494q19.31 7.0805 28.429 18.774t9.1188 29.502q0 24.245-14.375 36.261-14.268 11.908-43.234 11.908-11.908 0-23.923-2.8966-11.908-2.7893-23.065-8.3678v-32.72q12.659 9.0115 24.46 13.41 11.908 4.3985 23.494 4.3985 11.693 0 18.13-5.2567 6.4368-5.364 6.4368-14.912 0-7.1878-4.2912-12.552-4.2912-5.4713-12.444-8.5824z"/>
  </g>
 </g>
</svg>
